<svg width="1123" height="723" viewBox="0 0 1123 723" fill="none" xmlns="http://www.w3.org/2000/svg">
<rect x="1" y="1" width="1121" height="721" rx="19" fill="white" stroke="black" stroke-width="2"/>
<rect x="199" y="101" width="260" height="147" rx="19" fill="white" stroke="black" stroke-width="2"/>
<text fill="black" xml:space="preserve" style="white-space: pre" font-family="Inter" font-size="14" font-weight="bold" letter-spacing="0em"><tspan x="252.582" y="173.591">European Commission&#10;</tspan><tspan x="217.172" y="190.591"><a href="https://commission.europa.eu/about/departments-and-executive-agencies/internal-market-industry-entrepreneurship-and-smes_en">DG GROW (Lead)</a> - DG CONNECT</tspan></text>
<rect x="47" y="283" width="114" height="74" rx="19" fill="white" stroke="black" stroke-width="2"/>
<text fill="black" xml:space="preserve" style="white-space: pre" font-family="Inter" font-size="14" font-weight="bold" letter-spacing="0em"><tspan x="83.3975" y="325.591">ENISA</tspan></text>
<rect x="789" y="295" width="260" height="147" rx="19" fill="white" stroke="black" stroke-width="2"/>
<text fill="black" xml:space="preserve" style="white-space: pre" font-family="Inter" font-size="14" font-weight="bold" letter-spacing="0em"><tspan x="847.358" y="360.591">European Parliament&#x2028;</tspan><tspan x="853.374" y="377.591">&#38; Council of the EU</tspan></text>
<rect x="471" y="532" width="260" height="147" rx="19" fill="white" stroke="black" stroke-width="2"/>
<text fill="black" xml:space="preserve" style="white-space: pre" font-family="Inter" font-size="14" font-weight="bold" letter-spacing="0em"><tspan x="527.239" y="597.591">European Parliament,&#x2028;</tspan><tspan x="514.142" y="614.591">Council &#38; Official Journal</tspan></text>
<text fill="black" xml:space="preserve" style="white-space: pre" font-family="Inter" font-size="12" letter-spacing="0em"><tspan x="779" y="151.864">drafts and adopts the proposal &#10;</tspan><tspan x="779" y="166.864">for the Cyber Resilience Act</tspan></text>
<text fill="black" xml:space="preserve" style="white-space: pre" font-family="Inter" font-size="12" letter-spacing="0em"><tspan x="905" y="561.864">examine the proposal, &#10;</tspan><tspan x="905" y="576.864">develop their positions &#10;</tspan><tspan x="905" y="591.864">and negotiate a common text &#10;</tspan><tspan x="905" y="606.864">(trilogues).</tspan></text>
<text fill="black" xml:space="preserve" style="white-space: pre" font-family="Inter" font-size="12" letter-spacing="0em"><tspan x="431.195" y="447.864">formally adopt the agreed text, &#10;</tspan><tspan x="473.078" y="462.864">which is then published &#10;</tspan><tspan x="449.711" y="477.864">in the Official Journal of the &#10;</tspan><tspan x="520.035" y="492.864">European Union</tspan></text>
<text fill="black" xml:space="preserve" style="white-space: pre" font-family="Inter" font-size="12" letter-spacing="0em"><tspan x="250.168" y="347.864">Provides technical input and expertise &#10;</tspan><tspan x="304.238" y="362.864">during drafting and supports &#10;</tspan><tspan x="295.684" y="377.864">implementation after adoption.</tspan></text>
<text fill="black" xml:space="preserve" style="white-space: pre" font-family="Inter" font-size="14" font-weight="bold" letter-spacing="0em"><tspan x="550.122" y="34.5909">EU institutions and agencies</tspan></text>
<path d="M918.924 294.997C919.474 295.039 919.955 294.627 919.997 294.076L920.682 285.102C920.725 284.552 920.312 284.071 919.762 284.029C919.211 283.987 918.73 284.399 918.688 284.95L918.079 292.927L910.102 292.317C909.552 292.275 909.071 292.688 909.029 293.238C908.987 293.789 909.399 294.27 909.95 294.312L918.924 294.997ZM461.42 135.889L461.489 136.887C580.465 128.714 664.781 133.391 734.27 157.464C803.727 181.525 858.476 225.002 918.241 294.651L919 294L919.759 293.349C859.862 223.546 804.835 179.792 734.925 155.574C665.046 131.366 580.403 126.714 461.352 134.891L461.42 135.889Z" fill="black"/>
<path d="M731.31 614.276C730.91 614.657 730.895 615.29 731.276 615.69L737.488 622.203C737.869 622.603 738.502 622.618 738.902 622.236C739.301 621.855 739.316 621.222 738.935 620.823L733.414 615.033L739.203 609.512C739.603 609.131 739.618 608.498 739.236 608.098C738.855 607.699 738.222 607.684 737.823 608.065L731.31 614.276ZM933 443L932.016 442.821C918.992 514.631 900.434 558.066 869.556 583.238C838.682 608.406 795.272 615.497 732.024 614L732 615L731.976 616C795.291 617.498 839.35 610.442 870.819 584.788C902.285 559.138 920.944 515.075 933.984 443.178L933 443Z" fill="black"/>
<circle cx="618" cy="323" r="68" fill="white" stroke="black" stroke-width="2"/>
<text fill="black" xml:space="preserve" style="white-space: pre" font-family="Inter" font-size="14" font-weight="bold" letter-spacing="0em"><tspan x="600.589" y="308.591">Cyber&#10;</tspan><tspan x="586.302" y="325.591">Resilience&#10;</tspan><tspan x="609.612" y="342.591">Act</tspan></text>
<path d="M617.702 391.288C617.309 390.9 616.676 390.905 616.288 391.298L609.97 397.708C609.582 398.101 609.587 398.734 609.98 399.122C610.373 399.509 611.006 399.505 611.394 399.112L617.01 393.414L622.708 399.03C623.101 399.418 623.734 399.413 624.122 399.02C624.509 398.627 624.505 397.994 624.112 397.606L617.702 391.288ZM618 531L619 530.993L618 391.993L617 392L616 392.007L617 531.007L618 531Z" fill="black"/>
<path d="M550.707 323.724C551.097 323.334 551.097 322.701 550.707 322.31L544.343 315.946C543.953 315.555 543.319 315.555 542.929 315.946C542.538 316.336 542.538 316.97 542.929 317.36L548.585 323.017L542.928 328.674C542.538 329.064 542.538 329.697 542.928 330.088C543.319 330.479 543.952 330.479 544.343 330.088L550.707 323.724ZM162 323L162 324L164.021 324L164.021 323L164.021 322L162 322L162 323ZM168.062 323L168.062 324L172.104 324L172.104 323L172.104 322L168.063 322L168.062 323ZM176.146 323.001L176.146 324.001L180.187 324.001L180.187 323.001L180.188 322.001L176.146 322.001L176.146 323.001ZM184.229 323.001L184.229 324.001L188.271 324.001L188.271 323.001L188.271 322.001L184.229 322.001L184.229 323.001ZM192.312 323.001L192.312 324.001L196.354 324.002L196.354 323.002L196.354 322.002L192.313 322.001L192.312 323.001ZM200.396 323.002L200.396 324.002L204.437 324.002L204.437 323.002L204.438 322.002L200.396 322.002L200.396 323.002ZM208.479 323.002L208.479 324.002L212.521 324.002L212.521 323.002L212.521 322.002L208.479 322.002L208.479 323.002ZM216.562 323.002L216.562 324.002L220.604 324.003L220.604 323.003L220.604 322.003L216.563 322.002L216.562 323.002ZM224.646 323.003L224.646 324.003L228.687 324.003L228.687 323.003L228.687 322.003L224.646 322.003L224.646 323.003ZM232.729 323.003L232.729 324.003L236.771 324.003L236.771 323.003L236.771 322.003L232.729 322.003L232.729 323.003ZM240.812 323.004L240.812 324.004L244.854 324.004L244.854 323.004L244.854 322.004L240.812 322.004L240.812 323.004ZM248.896 323.004L248.896 324.004L252.937 324.004L252.937 323.004L252.937 322.004L248.896 322.004L248.896 323.004ZM256.979 323.004L256.979 324.004L261.021 324.004L261.021 323.004L261.021 322.004L256.979 322.004L256.979 323.004ZM265.062 323.005L265.062 324.005L269.104 324.005L269.104 323.005L269.104 322.005L265.062 322.005L265.062 323.005ZM273.146 323.005L273.146 324.005L277.187 324.005L277.187 323.005L277.187 322.005L273.146 322.005L273.146 323.005ZM281.229 323.005L281.229 324.005L285.271 324.005L285.271 323.005L285.271 322.005L281.229 322.005L281.229 323.005ZM289.312 323.006L289.312 324.006L293.354 324.006L293.354 323.006L293.354 322.006L289.312 322.006L289.312 323.006ZM297.396 323.006L297.396 324.006L301.437 324.006L301.437 323.006L301.437 322.006L297.396 322.006L297.396 323.006ZM305.479 323.006L305.479 324.006L309.521 324.007L309.521 323.007L309.521 322.007L305.479 322.006L305.479 323.006ZM313.562 323.007L313.562 324.007L317.604 324.007L317.604 323.007L317.604 322.007L313.562 322.007L313.562 323.007ZM321.646 323.007L321.646 324.007L325.687 324.007L325.687 323.007L325.687 322.007L321.646 322.007L321.646 323.007ZM329.729 323.007L329.729 324.007L333.771 324.008L333.771 323.008L333.771 322.008L329.729 322.007L329.729 323.007ZM337.812 323.008L337.812 324.008L341.854 324.008L341.854 323.008L341.854 322.008L337.812 322.008L337.812 323.008ZM345.896 323.008L345.896 324.008L349.937 324.008L349.937 323.008L349.937 322.008L345.896 322.008L345.896 323.008ZM353.979 323.009L353.979 324.009L358.021 324.009L358.021 323.009L358.021 322.009L353.979 322.009L353.979 323.009ZM362.062 323.009L362.062 324.009L366.104 324.009L366.104 323.009L366.104 322.009L362.062 322.009L362.062 323.009ZM370.146 323.009L370.146 324.009L374.187 324.009L374.187 323.009L374.187 322.009L370.146 322.009L370.146 323.009ZM378.229 323.01L378.229 324.01L382.27 324.01L382.271 323.01L382.271 322.01L378.229 322.01L378.229 323.01ZM386.312 323.01L386.312 324.01L390.354 324.01L390.354 323.01L390.354 322.01L386.312 322.01L386.312 323.01ZM394.396 323.01L394.395 324.01L398.437 324.011L398.437 323.011L398.437 322.011L394.396 322.01L394.396 323.01ZM402.479 323.011L402.479 324.011L406.52 324.011L406.52 323.011L406.521 322.011L402.479 322.011L402.479 323.011ZM410.562 323.011L410.562 324.011L414.604 324.011L414.604 323.011L414.604 322.011L410.562 322.011L410.562 323.011ZM418.645 323.011L418.645 324.011L422.687 324.012L422.687 323.012L422.687 322.012L418.645 322.011L418.645 323.011ZM426.729 323.012L426.729 324.012L430.77 324.012L430.77 323.012L430.77 322.012L426.729 322.012L426.729 323.012ZM434.812 323.012L434.812 324.012L438.854 324.012L438.854 323.012L438.854 322.012L434.812 322.012L434.812 323.012ZM442.895 323.012L442.895 324.012L446.937 324.013L446.937 323.013L446.937 322.013L442.895 322.012L442.895 323.012ZM450.979 323.013L450.979 324.013L455.02 324.013L455.02 323.013L455.02 322.013L450.979 322.013L450.979 323.013ZM459.062 323.013L459.062 324.013L463.104 324.013L463.104 323.013L463.104 322.013L459.062 322.013L459.062 323.013ZM467.145 323.014L467.145 324.014L471.187 324.014L471.187 323.014L471.187 322.014L467.145 322.014L467.145 323.014ZM475.229 323.014L475.229 324.014L479.27 324.014L479.27 323.014L479.27 322.014L475.229 322.014L475.229 323.014ZM483.312 323.014L483.312 324.014L487.354 324.014L487.354 323.014L487.354 322.014L483.312 322.014L483.312 323.014ZM491.395 323.015L491.395 324.015L495.437 324.015L495.437 323.015L495.437 322.015L491.395 322.015L491.395 323.015ZM499.479 323.015L499.479 324.015L503.52 324.015L503.52 323.015L503.52 322.015L499.479 322.015L499.479 323.015ZM507.562 323.015L507.562 324.015L511.604 324.016L511.604 323.016L511.604 322.016L507.562 322.015L507.562 323.015ZM515.645 323.016L515.645 324.016L519.687 324.016L519.687 323.016L519.687 322.016L515.645 322.016L515.645 323.016ZM523.729 323.016L523.728 324.016L527.77 324.016L527.77 323.016L527.77 322.016L523.729 322.016L523.729 323.016ZM531.812 323.016L531.812 324.016L535.853 324.017L535.853 323.017L535.854 322.017L531.812 322.016L531.812 323.016ZM539.895 323.017L539.895 324.017L543.937 324.017L543.937 323.017L543.937 322.017L539.895 322.017L539.895 323.017ZM547.978 323.017L547.978 324.017L550 324.017L550 323.017L550 322.017L547.978 322.017L547.978 323.017ZM550.707 323.724C551.097 323.334 551.097 322.701 550.707 322.31L544.343 315.946C543.953 315.555 543.319 315.555 542.929 315.946C542.538 316.336 542.538 316.97 542.929 317.36L548.585 323.017L542.928 328.674C542.538 329.064 542.538 329.697 542.928 330.088C543.319 330.479 543.952 330.479 544.343 330.088L550.707 323.724ZM162 323L162 324L164.021 324L164.021 323L164.021 322L162 322L162 323ZM168.062 323L168.062 324L172.104 324L172.104 323L172.104 322L168.063 322L168.062 323ZM176.146 323.001L176.146 324.001L180.187 324.001L180.187 323.001L180.188 322.001L176.146 322.001L176.146 323.001ZM184.229 323.001L184.229 324.001L188.271 324.001L188.271 323.001L188.271 322.001L184.229 322.001L184.229 323.001ZM192.312 323.001L192.312 324.001L196.354 324.002L196.354 323.002L196.354 322.002L192.313 322.001L192.312 323.001ZM200.396 323.002L200.396 324.002L204.437 324.002L204.437 323.002L204.438 322.002L200.396 322.002L200.396 323.002ZM208.479 323.002L208.479 324.002L212.521 324.002L212.521 323.002L212.521 322.002L208.479 322.002L208.479 323.002ZM216.562 323.002L216.562 324.002L220.604 324.003L220.604 323.003L220.604 322.003L216.563 322.002L216.562 323.002ZM224.646 323.003L224.646 324.003L228.687 324.003L228.687 323.003L228.687 322.003L224.646 322.003L224.646 323.003ZM232.729 323.003L232.729 324.003L236.771 324.003L236.771 323.003L236.771 322.003L232.729 322.003L232.729 323.003ZM240.812 323.004L240.812 324.004L244.854 324.004L244.854 323.004L244.854 322.004L240.812 322.004L240.812 323.004ZM248.896 323.004L248.896 324.004L252.937 324.004L252.937 323.004L252.937 322.004L248.896 322.004L248.896 323.004ZM256.979 323.004L256.979 324.004L261.021 324.004L261.021 323.004L261.021 322.004L256.979 322.004L256.979 323.004ZM265.062 323.005L265.062 324.005L269.104 324.005L269.104 323.005L269.104 322.005L265.062 322.005L265.062 323.005ZM273.146 323.005L273.146 324.005L277.187 324.005L277.187 323.005L277.187 322.005L273.146 322.005L273.146 323.005ZM281.229 323.005L281.229 324.005L285.271 324.005L285.271 323.005L285.271 322.005L281.229 322.005L281.229 323.005ZM289.312 323.006L289.312 324.006L293.354 324.006L293.354 323.006L293.354 322.006L289.312 322.006L289.312 323.006ZM297.396 323.006L297.396 324.006L301.437 324.006L301.437 323.006L301.437 322.006L297.396 322.006L297.396 323.006ZM305.479 323.006L305.479 324.006L309.521 324.007L309.521 323.007L309.521 322.007L305.479 322.006L305.479 323.006ZM313.562 323.007L313.562 324.007L317.604 324.007L317.604 323.007L317.604 322.007L313.562 322.007L313.562 323.007ZM321.646 323.007L321.646 324.007L325.687 324.007L325.687 323.007L325.687 322.007L321.646 322.007L321.646 323.007ZM329.729 323.007L329.729 324.007L333.771 324.008L333.771 323.008L333.771 322.008L329.729 322.007L329.729 323.007ZM337.812 323.008L337.812 324.008L341.854 324.008L341.854 323.008L341.854 322.008L337.812 322.008L337.812 323.008ZM345.896 323.008L345.896 324.008L349.937 324.008L349.937 323.008L349.937 322.008L345.896 322.008L345.896 323.008ZM353.979 323.009L353.979 324.009L358.021 324.009L358.021 323.009L358.021 322.009L353.979 322.009L353.979 323.009ZM362.062 323.009L362.062 324.009L366.104 324.009L366.104 323.009L366.104 322.009L362.062 322.009L362.062 323.009ZM370.146 323.009L370.146 324.009L374.187 324.009L374.187 323.009L374.187 322.009L370.146 322.009L370.146 323.009ZM378.229 323.01L378.229 324.01L382.27 324.01L382.271 323.01L382.271 322.01L378.229 322.01L378.229 323.01ZM386.312 323.01L386.312 324.01L390.354 324.01L390.354 323.01L390.354 322.01L386.312 322.01L386.312 323.01ZM394.396 323.01L394.395 324.01L398.437 324.011L398.437 323.011L398.437 322.011L394.396 322.01L394.396 323.01ZM402.479 323.011L402.479 324.011L406.52 324.011L406.52 323.011L406.521 322.011L402.479 322.011L402.479 323.011ZM410.562 323.011L410.562 324.011L414.604 324.011L414.604 323.011L414.604 322.011L410.562 322.011L410.562 323.011ZM418.645 323.011L418.645 324.011L422.687 324.012L422.687 323.012L422.687 322.012L418.645 322.011L418.645 323.011ZM426.729 323.012L426.729 324.012L430.77 324.012L430.77 323.012L430.77 322.012L426.729 322.012L426.729 323.012ZM434.812 323.012L434.812 324.012L438.854 324.012L438.854 323.012L438.854 322.012L434.812 322.012L434.812 323.012ZM442.895 323.012L442.895 324.012L446.937 324.013L446.937 323.013L446.937 322.013L442.895 322.012L442.895 323.012ZM450.979 323.013L450.979 324.013L455.02 324.013L455.02 323.013L455.02 322.013L450.979 322.013L450.979 323.013ZM459.062 323.013L459.062 324.013L463.104 324.013L463.104 323.013L463.104 322.013L459.062 322.013L459.062 323.013ZM467.145 323.014L467.145 324.014L471.187 324.014L471.187 323.014L471.187 322.014L467.145 322.014L467.145 323.014ZM475.229 323.014L475.229 324.014L479.27 324.014L479.27 323.014L479.27 322.014L475.229 322.014L475.229 323.014ZM483.312 323.014L483.312 324.014L487.354 324.014L487.354 323.014L487.354 322.014L483.312 322.014L483.312 323.014ZM491.395 323.015L491.395 324.015L495.437 324.015L495.437 323.015L495.437 322.015L491.395 322.015L491.395 323.015ZM499.479 323.015L499.479 324.015L503.52 324.015L503.52 323.015L503.52 322.015L499.479 322.015L499.479 323.015ZM507.562 323.015L507.562 324.015L511.604 324.016L511.604 323.016L511.604 322.016L507.562 322.015L507.562 323.015ZM515.645 323.016L515.645 324.016L519.687 324.016L519.687 323.016L519.687 322.016L515.645 322.016L515.645 323.016ZM523.729 323.016L523.728 324.016L527.77 324.016L527.77 323.016L527.77 322.016L523.729 322.016L523.729 323.016ZM531.812 323.016L531.812 324.016L535.853 324.017L535.853 323.017L535.854 322.017L531.812 322.016L531.812 323.016ZM539.895 323.017L539.895 324.017L543.937 324.017L543.937 323.017L543.937 322.017L539.895 322.017L539.895 323.017ZM547.978 323.017L547.978 324.017L550 324.017L550 323.017L550 322.017L547.978 322.017L547.978 323.017Z" fill="black"/>
</svg>
